<svg xmlns="http://www.w3.org/2000/svg" xmlns:xlink="http://www.w3.org/1999/xlink" width="1080" zoomAndPan="magnify" viewBox="0 0 810 809.999993" height="1080" preserveAspectRatio="xMidYMid meet" version="1.0"><defs><clipPath id="71e7d9f9b1"><path d="M 252 66.40625 L 541 66.40625 L 541 346 L 252 346 Z M 252 66.40625 " clip-rule="nonzero"/></clipPath></defs><g clip-path="url(#71e7d9f9b1)"><path fill="#49326b" d="M 540.597656 205.683594 C 540.597656 282.878906 476.125 345.414062 396.535156 345.414062 C 316.949219 345.414062 252.484375 282.878906 252.484375 205.683594 C 252.484375 128.535156 316.976562 65.976562 396.535156 65.976562 C 476.09375 65.976562 540.597656 128.535156 540.597656 205.683594 Z M 540.597656 205.683594 " fill-opacity="1" fill-rule="nonzero"/></g><path fill="#49326b" d="M 726.148438 470.054688 C 726.148438 547.25 661.65625 609.785156 582.085938 609.785156 C 502.515625 609.785156 438.023438 547.25 438.023438 470.054688 C 438.023438 392.902344 502.515625 330.347656 582.085938 330.347656 C 661.65625 330.347656 726.148438 392.902344 726.148438 470.054688 Z M 726.148438 470.054688 " fill-opacity="1" fill-rule="nonzero"/><path fill="#49326b" d="M 357.195312 471.28125 C 357.195312 499.535156 348.550781 525.832031 333.675781 547.816406 C 307.9375 585.875 263.550781 610.992188 213.113281 610.992188 C 133.542969 610.992188 69.070312 548.453125 69.070312 471.28125 C 69.070312 394.109375 133.542969 331.550781 213.113281 331.550781 C 292.683594 331.550781 357.195312 394.121094 357.195312 471.28125 Z M 357.195312 471.28125 " fill-opacity="1" fill-rule="nonzero"/><path fill="#49326b" d="M 565.503906 742.398438 C 494.359375 742.4375 456.941406 684.574219 437.292969 626.730469 C 417.648438 568.886719 415.808594 510.984375 415.808594 510.984375 L 379.507812 510.683594 C 379.507812 510.683594 372.699219 742.214844 230.457031 742.339844 L 565.507812 742.398438 Z M 565.503906 742.398438 " fill-opacity="1" fill-rule="nonzero"/><path fill="#49326b" d="M 298.617188 308.324219 C 379.523438 389.242188 379.523438 510.722656 379.523438 510.722656 L 415.824219 511.019531 C 415.824219 511.019531 415.824219 386.964844 494.472656 308.324219 " fill-opacity="1" fill-rule="nonzero"/><path fill="#49326b" d="M 314.8125 568.199219 C 395.714844 487.292969 517.214844 487.292969 517.214844 487.292969 L 517.496094 450.992188 C 517.496094 450.992188 393.441406 450.992188 314.808594 372.351562 " fill-opacity="1" fill-rule="nonzero"/><path fill="#49326b" d="M 477.070312 568.8125 C 396.167969 487.90625 274.667969 487.90625 274.667969 487.90625 L 274.378906 451.605469 C 274.378906 451.605469 398.441406 451.605469 477.074219 372.964844 " fill-opacity="1" fill-rule="nonzero"/></svg>