<svg xmlns="http://www.w3.org/2000/svg" xmlns:xlink="http://www.w3.org/1999/xlink" width="1080" zoomAndPan="magnify" viewBox="0 0 810 809.999993" height="1080" preserveAspectRatio="xMidYMid meet" version="1.0"><path fill="#49326b" d="M 658.5 158.226562 C 569.824219 109.132812 461.09375 147.003906 415.65625 242.820312 C 411.453125 251.679688 407.925781 262.820312 404.996094 275.738281 C 402.0625 262.820312 398.539062 251.679688 394.335938 242.820312 C 348.894531 147.003906 240.167969 109.132812 151.488281 158.226562 C 84.402344 195.355469 53.371094 275.507812 65.910156 354.242188 C 69.648438 377.714844 77.09375 399.117188 87.167969 418.855469 C 113.726562 470.910156 158.582031 511.441406 202.039062 548.054688 C 265.667969 601.671875 334.640625 655.074219 404.007812 699.542969 C 404.074219 700.328125 404.113281 700.746094 404.113281 700.746094 C 404.40625 700.558594 404.699219 700.367188 404.996094 700.179688 C 405.289062 700.367188 405.582031 700.558594 405.875 700.746094 C 405.875 700.746094 405.914062 700.328125 405.984375 699.542969 C 475.347656 655.074219 544.320312 601.671875 607.949219 548.054688 C 651.410156 511.441406 696.253906 470.910156 722.820312 418.855469 C 732.894531 399.117188 740.339844 377.714844 744.078125 354.242188 C 756.617188 275.507812 725.585938 195.355469 658.5 158.226562 " fill-opacity="1" fill-rule="nonzero"/></svg>