<svg xmlns="http://www.w3.org/2000/svg" xmlns:xlink="http://www.w3.org/1999/xlink" width="1080" zoomAndPan="magnify" viewBox="0 0 810 809.999993" height="1080" preserveAspectRatio="xMidYMid meet" version="1.0"><defs><clipPath id="c71251b1c3"><path d="M 208 441 L 566 441 L 566 764.617188 L 208 764.617188 Z M 208 441 " clip-rule="nonzero"/></clipPath><clipPath id="7efec2e612"><path d="M 81 45.367188 L 694 45.367188 L 694 577 L 81 577 Z M 81 45.367188 " clip-rule="nonzero"/></clipPath></defs><g clip-path="url(#c71251b1c3)"><path fill="#49326b" d="M 565.300781 764.933594 C 489.550781 765 449.710938 684.234375 428.816406 603.492188 C 407.917969 522.75 405.917969 441.882812 405.917969 441.882812 L 367.269531 441.5 C 367.269531 441.5 360.019531 764.730469 208.558594 764.863281 L 565.296875 764.945312 Z M 565.300781 764.933594 " fill-opacity="1" fill-rule="nonzero"/></g><g clip-path="url(#7efec2e612)"><path fill="#49326b" d="M 693.457031 441.875 C 692.796875 284.21875 456.757812 169.867188 387.441406 45.085938 C 318.160156 169.855469 82.128906 284.199219 81.453125 441.875 C 81.144531 516.324219 149.960938 576.636719 234.464844 576.636719 C 318.96875 576.636719 387.445312 516.324219 387.445312 441.875 C 387.445312 516.324219 455.964844 576.636719 540.46875 576.636719 C 624.972656 576.636719 693.449219 516.324219 693.449219 441.875 Z M 693.457031 441.875 " fill-opacity="1" fill-rule="nonzero"/></g></svg>