<svg xmlns="http://www.w3.org/2000/svg" xmlns:xlink="http://www.w3.org/1999/xlink" width="40" zoomAndPan="magnify" viewBox="0 0 30 30.000001" height="40" preserveAspectRatio="xMidYMid meet" version="1.2"><defs><clipPath id="78d294e2d1"><path d="M 11.171875 2.910156 L 28.902344 2.910156 L 28.902344 26.128906 L 11.171875 26.128906 Z M 11.171875 2.910156 "/></clipPath><clipPath id="21ebde7105"><path d="M 15 2.902344 L 23 2.902344 L 23 25 L 15 25 Z M 15 2.902344 "/></clipPath><clipPath id="3731aaacf6"><path d="M 1.324219 3 L 19 3 L 19 26 L 1.324219 26 Z M 1.324219 3 "/></clipPath><clipPath id="244855770a"><path d="M 1.324219 3 L 8 3 L 8 22 L 1.324219 22 Z M 1.324219 3 "/></clipPath><clipPath id="f988f79b17"><path d="M 1.324219 3 L 12 3 L 12 26 L 1.324219 26 Z M 1.324219 3 "/></clipPath></defs><g id="8947e0e832"><g clip-rule="nonzero" clip-path="url(#78d294e2d1)"><path style=" stroke:none;fill-rule:nonzero;fill:#e0e0dd;fill-opacity:1;" d="M 16.945312 2.945312 L 27.535156 5.136719 C 28.457031 5.328125 29.054688 6.203125 28.867188 7.089844 L 25.136719 24.832031 C 24.953125 25.71875 24.054688 26.28125 23.128906 26.089844 L 12.542969 23.898438 C 11.621094 23.707031 11.023438 22.832031 11.210938 21.945312 L 14.9375 4.207031 C 15.125 3.320312 16.023438 2.753906 16.945312 2.945312 "/></g><path style=" stroke:none;fill-rule:nonzero;fill:#dc2225;fill-opacity:1;" d="M 18.476562 7.304688 L 18.089844 5.328125 L 16.917969 6.984375 L 18.476562 7.304688 M 18.519531 7.570312 L 16.765625 7.207031 L 16.308594 7.851562 C 16.195312 8.011719 16.128906 8.132812 16.113281 8.222656 C 16.097656 8.289062 16.117188 8.355469 16.171875 8.421875 C 16.226562 8.488281 16.363281 8.550781 16.578125 8.609375 L 16.550781 8.734375 L 15.125 8.4375 L 15.152344 8.316406 C 15.347656 8.320312 15.476562 8.304688 15.546875 8.261719 C 15.679688 8.179688 15.851562 7.988281 16.058594 7.695312 L 18.429688 4.324219 L 18.546875 4.347656 L 19.339844 8.414062 C 19.402344 8.742188 19.476562 8.960938 19.5625 9.070312 C 19.644531 9.179688 19.78125 9.261719 19.960938 9.3125 L 19.9375 9.433594 L 18.148438 9.0625 L 18.175781 8.941406 C 18.355469 8.96875 18.484375 8.964844 18.558594 8.925781 C 18.632812 8.890625 18.679688 8.835938 18.695312 8.761719 C 18.714844 8.664062 18.703125 8.5 18.65625 8.273438 L 18.519531 7.570312 "/><path style=" stroke:none;fill-rule:nonzero;fill:#dc2225;fill-opacity:1;" d="M 20.121094 14.125 C 20.695312 13.402344 21.1875 13.085938 22 13.253906 C 22.898438 13.4375 23.476562 14.3125 23.289062 15.203125 C 22.949219 16.816406 20.984375 18.09375 19.019531 19.371094 C 17.730469 17.421875 16.441406 15.472656 16.78125 13.855469 C 16.96875 12.964844 17.851562 12.394531 18.75 12.578125 C 19.5625 12.746094 19.882812 13.234375 20.121094 14.125 "/><path style=" stroke:none;fill-rule:nonzero;fill:#ffffff;fill-opacity:1;" d="M 17.835938 24.996094 L 17.535156 24.933594 L 17.835938 24.996094 M 22.242188 4.042969 L 21.527344 3.894531 L 22.242188 4.042969 "/><g clip-rule="nonzero" clip-path="url(#21ebde7105)"><path style=" stroke:none;fill-rule:nonzero;fill:#e5e5e3;fill-opacity:1;" d="M 17.835938 24.996094 L 17.535156 24.933594 L 15.238281 24.457031 L 16.523438 24.285156 C 17.457031 24.160156 18.117188 23.328125 17.992188 22.429688 L 17.136719 16.140625 C 17.570312 17.179688 18.292969 18.277344 19.019531 19.371094 L 17.835938 24.996094 M 20.121094 14.125 C 19.882812 13.234375 19.5625 12.746094 18.75 12.578125 C 18.632812 12.554688 18.519531 12.542969 18.40625 12.542969 C 17.675781 12.542969 17.011719 13.03125 16.808594 13.75 L 16.113281 8.640625 L 16.550781 8.734375 L 16.578125 8.609375 C 16.363281 8.550781 16.226562 8.488281 16.171875 8.421875 C 16.117188 8.355469 16.097656 8.289062 16.113281 8.222656 C 16.128906 8.132812 16.195312 8.011719 16.308594 7.851562 L 16.765625 7.207031 L 18.519531 7.570312 L 18.65625 8.273438 C 18.703125 8.5 18.714844 8.664062 18.695312 8.761719 C 18.679688 8.835938 18.632812 8.890625 18.558594 8.925781 C 18.515625 8.949219 18.457031 8.960938 18.378906 8.960938 C 18.320312 8.960938 18.25 8.953125 18.175781 8.941406 L 18.148438 9.0625 L 19.9375 9.433594 L 19.960938 9.3125 C 19.78125 9.261719 19.644531 9.179688 19.5625 9.070312 C 19.476562 8.960938 19.402344 8.742188 19.339844 8.414062 L 18.546875 4.347656 L 18.429688 4.324219 L 16.058594 7.695312 C 16.035156 7.722656 16.015625 7.753906 15.996094 7.78125 L 15.542969 4.472656 C 15.5 4.15625 15.367188 3.878906 15.171875 3.648438 C 15.480469 3.195312 16.011719 2.910156 16.589844 2.910156 C 16.707031 2.910156 16.828125 2.921875 16.945312 2.945312 L 21.527344 3.894531 L 22.242188 4.042969 L 20.121094 14.125 M 18.476562 7.304688 L 16.917969 6.984375 L 18.089844 5.328125 L 18.476562 7.304688 "/></g><path style=" stroke:none;fill-rule:nonzero;fill:#e1323a;fill-opacity:1;" d="M 19.9375 9.433594 L 18.148438 9.0625 L 18.175781 8.941406 C 18.25 8.953125 18.320312 8.960938 18.378906 8.960938 C 18.457031 8.960938 18.515625 8.949219 18.558594 8.925781 C 18.632812 8.890625 18.679688 8.835938 18.695312 8.761719 C 18.714844 8.664062 18.703125 8.5 18.65625 8.273438 L 18.519531 7.570312 L 16.765625 7.207031 L 16.308594 7.851562 C 16.195312 8.011719 16.128906 8.132812 16.113281 8.222656 C 16.097656 8.289062 16.117188 8.355469 16.171875 8.421875 C 16.226562 8.488281 16.363281 8.550781 16.578125 8.609375 L 16.550781 8.734375 L 16.113281 8.640625 L 15.996094 7.78125 C 16.015625 7.753906 16.035156 7.722656 16.058594 7.695312 L 18.429688 4.324219 L 18.546875 4.347656 L 19.339844 8.414062 C 19.402344 8.742188 19.476562 8.960938 19.5625 9.070312 C 19.644531 9.179688 19.78125 9.261719 19.960938 9.3125 L 19.9375 9.433594 M 18.089844 5.328125 L 16.917969 6.984375 L 18.476562 7.304688 L 18.089844 5.328125 "/><path style=" stroke:none;fill-rule:nonzero;fill:#e1323a;fill-opacity:1;" d="M 19.019531 19.371094 C 18.292969 18.277344 17.570312 17.179688 17.136719 16.140625 L 16.808594 13.75 C 17.011719 13.03125 17.675781 12.542969 18.40625 12.542969 C 18.519531 12.542969 18.632812 12.554688 18.75 12.578125 C 19.5625 12.746094 19.882812 13.234375 20.121094 14.125 L 19.019531 19.371094 "/><g clip-rule="nonzero" clip-path="url(#3731aaacf6)"><path style=" stroke:none;fill-rule:nonzero;fill:#f0f1f2;fill-opacity:1;" d="M 2.914062 4.511719 L 13.632812 3.074219 C 14.566406 2.949219 15.421875 3.574219 15.542969 4.472656 L 17.992188 22.429688 C 18.117188 23.328125 17.457031 24.160156 16.523438 24.285156 L 5.804688 25.722656 C 4.871094 25.847656 4.015625 25.222656 3.894531 24.324219 L 1.445312 6.367188 C 1.320312 5.46875 1.980469 4.636719 2.914062 4.511719 "/></g><path style=" stroke:none;fill-rule:nonzero;fill:#100f0d;fill-opacity:1;" d="M 6.464844 16.6875 C 6.503906 14.648438 9.082031 14.394531 9.441406 12.359375 C 10.332031 14.226562 12.882812 13.792969 13.46875 15.746094 C 13.4375 17.8125 11.011719 18.203125 10.222656 17.109375 C 10.835938 18.738281 11.050781 18.8125 12.746094 19.417969 L 8.144531 20.035156 C 9.617188 19.007812 9.804688 18.875 9.960938 17.144531 C 9.492188 18.40625 7.046875 18.667969 6.464844 16.6875 "/><path style=" stroke:none;fill-rule:nonzero;fill:#1e1917;fill-opacity:1;" d="M 3.074219 5.78125 L 3.058594 5.65625 L 5.023438 5.390625 L 5.039062 5.515625 L 4.875 5.539062 C 4.6875 5.5625 4.558594 5.636719 4.488281 5.757812 C 4.441406 5.835938 4.4375 6.011719 4.476562 6.285156 L 4.777344 8.511719 C 4.824219 8.855469 4.828125 9.136719 4.78125 9.359375 C 4.734375 9.582031 4.628906 9.785156 4.464844 9.96875 C 4.300781 10.148438 4.089844 10.257812 3.828125 10.292969 C 3.613281 10.324219 3.441406 10.292969 3.304688 10.207031 C 3.167969 10.117188 3.09375 10.007812 3.074219 9.871094 C 3.058594 9.761719 3.074219 9.675781 3.125 9.613281 C 3.191406 9.53125 3.273438 9.488281 3.371094 9.472656 C 3.441406 9.464844 3.511719 9.476562 3.574219 9.515625 C 3.640625 9.554688 3.726562 9.671875 3.84375 9.863281 C 3.914062 9.976562 3.988281 10.03125 4.070312 10.019531 C 4.128906 10.011719 4.179688 9.964844 4.222656 9.886719 C 4.269531 9.804688 4.277344 9.667969 4.25 9.480469 L 3.828125 6.371094 C 3.796875 6.140625 3.757812 5.992188 3.71875 5.921875 C 3.691406 5.871094 3.636719 5.828125 3.558594 5.796875 C 3.453125 5.757812 3.347656 5.742188 3.238281 5.757812 L 3.074219 5.78125 "/><g clip-rule="nonzero" clip-path="url(#244855770a)"><path style=" stroke:none;fill-rule:nonzero;fill:#ffffff;fill-opacity:1;" d="M 3.472656 21.234375 L 1.445312 6.367188 C 1.4375 6.324219 1.433594 6.285156 1.433594 6.246094 C 1.433594 6.285156 1.4375 6.324219 1.445312 6.367188 L 3.472656 21.234375 M 2.738281 4.546875 C 2.792969 4.53125 2.851562 4.519531 2.914062 4.511719 L 7.269531 3.929688 L 2.914062 4.511719 C 2.851562 4.519531 2.792969 4.53125 2.738281 4.546875 "/></g><g clip-rule="nonzero" clip-path="url(#f988f79b17)"><path style=" stroke:none;fill-rule:nonzero;fill:#f4f4f5;fill-opacity:1;" d="M 5.570312 25.738281 C 4.734375 25.738281 4.003906 25.140625 3.894531 24.324219 L 3.472656 21.234375 L 1.445312 6.367188 C 1.4375 6.324219 1.433594 6.285156 1.433594 6.246094 C 1.382812 5.457031 1.941406 4.734375 2.738281 4.546875 C 2.792969 4.53125 2.851562 4.519531 2.914062 4.511719 L 7.269531 3.929688 L 8.273438 3.792969 L 9.441406 12.359375 C 9.082031 14.394531 6.503906 14.648438 6.464844 16.6875 C 6.765625 17.707031 7.558594 18.132812 8.324219 18.132812 C 9.042969 18.132812 9.730469 17.757812 9.960938 17.144531 C 9.804688 18.875 9.617188 19.007812 8.144531 20.035156 L 10.445312 19.726562 L 11.164062 25.003906 L 5.804688 25.722656 C 5.726562 25.734375 5.648438 25.738281 5.570312 25.738281 M 3.414062 9.46875 C 3.398438 9.46875 3.386719 9.472656 3.371094 9.472656 C 3.273438 9.488281 3.191406 9.53125 3.125 9.613281 C 3.074219 9.675781 3.058594 9.761719 3.074219 9.871094 C 3.09375 10.007812 3.167969 10.117188 3.304688 10.207031 C 3.410156 10.269531 3.53125 10.304688 3.679688 10.304688 C 3.726562 10.304688 3.777344 10.300781 3.828125 10.292969 C 4.089844 10.257812 4.300781 10.148438 4.464844 9.96875 C 4.628906 9.785156 4.734375 9.582031 4.78125 9.359375 C 4.828125 9.136719 4.824219 8.855469 4.777344 8.511719 L 4.476562 6.285156 C 4.4375 6.011719 4.441406 5.835938 4.488281 5.757812 C 4.558594 5.636719 4.6875 5.5625 4.875 5.539062 L 5.039062 5.515625 L 5.023438 5.390625 L 3.058594 5.65625 L 3.074219 5.78125 L 3.238281 5.757812 C 3.269531 5.753906 3.296875 5.753906 3.328125 5.753906 C 3.40625 5.753906 3.484375 5.765625 3.558594 5.796875 C 3.636719 5.828125 3.691406 5.871094 3.71875 5.921875 C 3.757812 5.992188 3.796875 6.140625 3.828125 6.371094 L 4.25 9.480469 C 4.277344 9.667969 4.269531 9.804688 4.222656 9.886719 C 4.179688 9.964844 4.128906 10.011719 4.070312 10.019531 C 4.0625 10.019531 4.054688 10.019531 4.046875 10.019531 C 3.976562 10.019531 3.90625 9.96875 3.84375 9.863281 C 3.726562 9.671875 3.640625 9.554688 3.574219 9.515625 C 3.523438 9.484375 3.46875 9.46875 3.414062 9.46875 "/></g><path style=" stroke:none;fill-rule:nonzero;fill:#232221;fill-opacity:1;" d="M 8.144531 20.035156 C 9.617188 19.007812 9.804688 18.875 9.960938 17.144531 C 9.730469 17.757812 9.042969 18.132812 8.324219 18.132812 C 7.558594 18.132812 6.765625 17.707031 6.464844 16.6875 C 6.503906 14.648438 9.082031 14.394531 9.441406 12.359375 L 10.445312 19.726562 L 8.144531 20.035156 "/><path style=" stroke:none;fill-rule:nonzero;fill:#3a3534;fill-opacity:1;" d="M 3.679688 10.304688 C 3.53125 10.304688 3.410156 10.269531 3.304688 10.207031 C 3.167969 10.117188 3.09375 10.007812 3.074219 9.871094 C 3.058594 9.761719 3.074219 9.675781 3.125 9.613281 C 3.191406 9.53125 3.273438 9.488281 3.371094 9.472656 C 3.386719 9.472656 3.398438 9.46875 3.414062 9.46875 C 3.46875 9.46875 3.523438 9.484375 3.574219 9.515625 C 3.640625 9.554688 3.726562 9.671875 3.84375 9.863281 C 3.90625 9.96875 3.976562 10.019531 4.046875 10.019531 C 4.054688 10.019531 4.0625 10.019531 4.070312 10.019531 C 4.128906 10.011719 4.179688 9.964844 4.222656 9.886719 C 4.269531 9.804688 4.277344 9.667969 4.25 9.480469 L 3.828125 6.371094 C 3.796875 6.140625 3.757812 5.992188 3.71875 5.921875 C 3.691406 5.871094 3.636719 5.828125 3.558594 5.796875 C 3.484375 5.765625 3.40625 5.753906 3.328125 5.753906 C 3.296875 5.753906 3.269531 5.753906 3.238281 5.757812 L 3.074219 5.78125 L 3.058594 5.65625 L 5.023438 5.390625 L 5.039062 5.515625 L 4.875 5.539062 C 4.6875 5.5625 4.558594 5.636719 4.488281 5.757812 C 4.441406 5.835938 4.4375 6.011719 4.476562 6.285156 L 4.777344 8.511719 C 4.824219 8.855469 4.828125 9.136719 4.78125 9.359375 C 4.734375 9.582031 4.628906 9.785156 4.464844 9.96875 C 4.300781 10.148438 4.089844 10.257812 3.828125 10.292969 C 3.777344 10.300781 3.726562 10.304688 3.679688 10.304688 "/></g></svg>